# xmcd
#
# Track frame offsets:
#	173
#	14363
#	32761
#	50126
#	69299
#	89492
#	104825
#	123423
#	141048
#	158999
#	223068
#	235604
#	253266
#
# Disc length: 3641 seconds
#
# Revision: 1
# Processed by: cddbd v1.5.2PL0 Copyright (c) Steve Scherf et al.
# Submitted via: AudioConverter v5.0 Copyright (c) Ultimate Shareware Ltd
#
DISCID=be0e370d
DTITLE=30 secons to mars - a beautiful lie
DYEAR=1900
DGENRE=
TTITLE0=1
TTITLE1=2
TTITLE2=3
TTITLE3=4
TTITLE4=5
TTITLE5=6
TTITLE6=7
TTITLE7=8
TTITLE8=9
TTITLE9=10
TTITLE10=11
TTITLE11=12
TTITLE12=13
EXTD=
EXTT0=
EXTT1=
EXTT2=
EXTT3=
EXTT4=
EXTT5=
EXTT6=
EXTT7=
EXTT8=
EXTT9=
EXTT10=
EXTT11=
EXTT12=
PLAYORDER=
